<?xml version="1.0" encoding="UTF-8" standalone="no"?>
<!-- Generator: Adobe Illustrator 19.0.0, SVG Export Plug-In . SVG Version: 6.00 Build 0)  -->

<svg
   version="1.1"
   id="Layer_1"
   x="0px"
   y="0px"
   viewBox="0 0 142 31"
   xml:space="preserve"
   sodipodi:docname="logojcs.svg"
   width="142"
   height="31"
   inkscape:version="1.2.1 (9c6d41e410, 2022-07-14)"
   xmlns:inkscape="http://www.inkscape.org/namespaces/inkscape"
   xmlns:sodipodi="http://sodipodi.sourceforge.net/DTD/sodipodi-0.dtd"
   xmlns="http://www.w3.org/2000/svg"
   xmlns:svg="http://www.w3.org/2000/svg"><defs
   id="defs897"><rect
     x="27.595111"
     y="7.5664015"
     width="110.38045"
     height="16.022968"
     id="rect957" /></defs><sodipodi:namedview
   id="namedview895"
   pagecolor="#ffffff"
   bordercolor="#000000"
   borderopacity="0.25"
   inkscape:showpageshadow="2"
   inkscape:pageopacity="0.0"
   inkscape:pagecheckerboard="0"
   inkscape:deskcolor="#d1d1d1"
   showgrid="false"
   inkscape:lockguides="true"
   inkscape:zoom="4.4935495"
   inkscape:cx="49.404151"
   inkscape:cy="42.060291"
   inkscape:window-width="1920"
   inkscape:window-height="986"
   inkscape:window-x="-11"
   inkscape:window-y="-11"
   inkscape:window-maximized="1"
   inkscape:current-layer="Layer_1" />
<path
   style="fill:#245151;stroke-width:0.0511352"
   d="m 8.790733,20.16 c 0,0.473149 0.35015,0.817257 0.7392103,0.817257 h 1.9841997 c 0.42797,0 0.73922,-0.387122 0.73922,-0.817257 V 7.1699123 c 0.0389,-0.4301358 -0.31125,-0.8172572 -0.70031,-0.8172572 H 9.5688533 c -0.4279703,0 -0.7781203,0.3871214 -0.7781203,0.8172572 z"
   id="path812" />
<path
   style="fill:#356466;stroke-width:0.0511352"
   d="m 11.903203,20.203013 c 0,0.47315 0.42797,0.774244 0.81703,0.774244 h 9.92101 c 0.42796,0 0.93374,-0.301094 0.93374,-0.774244 V 9.2345617 c 0,-0.473149 -0.50578,-0.7312299 -0.93374,-0.7312299 h -9.92101 c -0.42797,0 -0.81703,0.2580809 -0.81703,0.7312299 z"
   id="path814" />
<path
   style="fill:#4a7a7f;stroke-width:0.0511352"
   d="m 13.848503,19.772878 c 0,0.473149 0.42796,0.774244 0.81702,0.774244 h 4.552 c 0.42796,0 0.85593,-0.301095 0.85593,-0.774244 V 6.5247089 c 0,-0.4731486 -0.46687,-1.0323248 -0.85593,-1.0323248 h -4.51309 c -0.42797,0 -0.85593,0.5591762 -0.85593,1.0323248 z"
   id="path816" />
<g
   id="g824"
   transform="matrix(-0.0486324,0,0,0.05376692,26.298403,3.234174)">
	<path
   style="fill:#0fa862"
   d="m 140.8,342.8 c -8,0 -15.2,-5.6 -16.8,-13.6 l -38.4,-180 c -1.6,-9.6 4,-18.4 12.8,-20 9.6,-1.6 18.4,4 20,12.8 l 39.2,180 c 1.6,9.6 -4,18.4 -12.8,20 -1.6,0.8 -2.4,0.8 -4,0.8 z"
   id="path818" />
	<path
   style="fill:#0fa862"
   d="m 273.6,342.8 c -0.8,0 -2.4,0 -4,0 -9.6,-1.6 -15.2,-11.2 -12.8,-20 L 296,142 c 1.6,-9.6 11.2,-15.2 20,-12.8 9.6,1.6 15.2,11.2 12.8,20 l -38.4,180 c -1.6,8 -8.8,13.6 -16.8,13.6 z"
   id="path820" />
	<path
   style="fill:#0fa862"
   d="m 208,338.8 c -9.6,0 -16,-8 -16,-16.8 V 142 c 0,-9.6 6.4,-16.8 16,-16.8 9.6,0 16,8 16,16.8 v 180 c 0,9.6 -6.4,16.8 -16,16.8 z"
   id="path822" />
</g>
<path
   style="fill:#1ad85a;stroke-width:0.0511352"
   d="m 6.145133,11.170171 c -0.0778,-0.258081 -0.0389,-0.688216 0.11672,-0.903284 0.15562,-0.215068 0.38906,-0.4731494 0.6614,-0.4731494 h 18.55812 c 0.27234,0 0.50578,0.2150684 0.6614,0.4731494 0.15563,0.215068 0.19453,0.602189 0.11672,0.86027 l -1.90639,6.796139 -0.11672,0.387122 -0.81702,2.92492 c -0.11672,0.387122 -0.42797,0.645203 -0.77812,0.645203 H 9.8022833 c -0.35015,0 -0.7003003,-0.258081 -0.7781103,-0.602189 l -0.81703,-2.92492 -0.11672,-0.387122 z m 17.19641,4.215327 H 9.063073 l 0.4668703,1.720541 H 22.874673 Z m -15.25112,-3.441083 0.46687,1.290406 h 15.32894 l 0.46687,-1.290406 z m 13.92832,8.172571 0.35015,-1.290405 h -12.33317 l 0.35015,1.290405 z"
   id="path826" />
<path
   style="fill:#19bf55;stroke-width:0.0511352"
   d="m 6.962153,10.223874 h 18.51922 c 0.27234,0 0.50578,0.215067 0.6614,0.473148 0.0778,0.08603 0.11672,0.258082 0.11672,0.387122 0,0 0,0.04302 0,0.08603 l -1.90639,6.753125 -0.11672,0.387122 -0.81702,2.92492 c -0.11672,0.387122 -0.42797,0.645203 -0.77812,0.645203 H 9.8022833 c -0.35015,0 -0.7003003,-0.258081 -0.7781103,-0.602189 l -0.81703,-2.92492 -0.11672,-0.387122 -1.90639,-6.753125 v -0.04301 c 0.0389,-0.129041 0.0778,-0.301095 0.11672,-0.430136 0.11672,-0.301094 0.38906,-0.516162 0.6614,-0.516162 z m 3.07357,9.032842 0.35015,1.290406 h 11.63287 l 0.35015,-1.290406 h -0.11671 l 0.11671,-0.430135 h -12.33317 l 0.11672,0.430135 z m -0.97265,-3.441083 0.4668703,1.720541 H 22.874673 l 0.46687,-1.720541 h -0.11672 l 0.11672,-0.430135 H 9.063073 l 0.11672,0.430135 z m -0.97265,-3.441083 0.46687,1.290406 h 15.32894 l 0.46687,-1.290406 h -0.11672 l 0.11672,-0.430135 H 8.090423 l 0.11672,0.430135 z"
   id="path828" />
<path
   style="fill:#72b1b7;stroke-width:0.0511352"
   d="M 9.3354133,25.278611 H 23.069203 c 0.46688,0 0.81703,-0.344109 0.81703,-0.860271 0,-0.516163 -0.38906,-0.860271 -0.81703,-0.860271 H 9.3354133 c -0.4668703,0 -0.8170203,0.344108 -0.8170203,0.860271 0,0.516162 0.35015,0.860271 0.8170203,0.860271 z"
   id="path830" />
<path
   style="fill:#5d9ba5;stroke-width:0.0511352"
   d="m 22.368893,25.278611 h -5.44682 c 0,-0.860271 0.77812,-1.720542 1.63405,-1.720542 h 2.91794 c 0.58359,0 0.89483,0.860271 0.89483,1.720542 z"
   id="path832" />
<path
   style="fill:#c43700;stroke-width:0.0511352"
   d="m 18.205963,25.192584 c 0,1.290405 0.93374,2.451771 2.10093,2.451771 1.16717,0 2.10092,-1.204379 2.10092,-2.451771 0,-1.290407 -0.93375,-2.322731 -2.10092,-2.322731 -1.16719,0 -2.10093,1.032324 -2.10093,2.322731 z"
   id="path834" />
<path
   style="fill:#ff9d00;stroke-width:0.0511352"
   d="m 18.205963,25.192584 c 0,1.290405 0.93374,2.32273 2.10093,2.32273 1.16717,0 2.10092,-1.032325 2.10092,-2.32273 0,-1.290407 -0.93375,-2.494786 -2.10092,-2.494786 -1.16719,0 -2.10093,1.204379 -2.10093,2.494786 z"
   id="path836" />
<ellipse
   style="fill:#ff5b00;stroke-width:0.0511352"
   cx="-20.306889"
   cy="25.192579"
   id="circle838"
   rx="2.1009197"
   ry="2.3227308"
   transform="scale(-1,1)" />
<path
   style="fill:#dd4400;stroke-width:0.0511352"
   d="m 21.785313,23.558069 c -0.81703,-0.903284 -2.13983,-0.903284 -2.95685,0 -0.81703,0.903285 -0.81703,2.365745 0,3.269029"
   id="path840" />
<path
   style="fill:#ebf0f2;stroke-width:0.0511352"
   d="m 20.306893,26.569016 c 0.7003,0 1.24498,-0.602189 1.24498,-1.376432 0,-0.774244 -0.54468,-1.376434 -1.24498,-1.376434 -0.70031,0 -1.24499,0.60219 -1.24499,1.376434 0,0.774243 0.54468,1.376432 1.24499,1.376432 z"
   id="path842" />
<path
   style="fill:#cadfe5;stroke-width:0.0511352"
   d="m 19.412053,24.246285 c -0.46687,0.516163 -0.46687,1.419447 0,1.935609 0.46686,0.516163 1.28389,0.516163 1.75077,0"
   id="path844" />
<path
   style="fill:#5d9ba5;stroke-width:0.0511352"
   d="m 14.704433,25.278611 h -5.44683 c 0,-0.860271 0.77812,-1.720542 1.63405,-1.720542 h 2.95685 c 0.50578,0 0.85593,0.860271 0.85593,1.720542 z"
   id="path846" />
<path
   style="fill:#c43700;stroke-width:0.0511352"
   d="m 10.541493,25.192584 c 0,1.290405 0.93375,2.451771 2.10093,2.451771 1.16717,0 2.10092,-1.204379 2.10092,-2.451771 0,-1.290407 -0.93375,-2.322731 -2.10092,-2.322731 -1.16718,0 -2.10093,1.032324 -2.10093,2.322731 z"
   id="path848" />
<path
   style="fill:#ff9d00;stroke-width:0.0511352"
   d="m 10.541493,25.192584 c 0,1.290405 0.93375,2.32273 2.10093,2.32273 1.16717,0 2.10092,-1.032325 2.10092,-2.32273 0,-1.290407 -0.93375,-2.494786 -2.10092,-2.494786 -1.16718,0 -2.10093,1.204379 -2.10093,2.494786 z"
   id="path850" />
<ellipse
   style="fill:#ff5b00;stroke-width:0.0511352"
   cx="-12.603535"
   cy="25.192579"
   id="circle852"
   rx="2.1009197"
   ry="2.3227308"
   transform="scale(-1,1)" />
<path
   style="fill:#dd4400;stroke-width:0.0511352"
   d="m 14.081943,23.558069 c -0.81703,-0.903284 -2.13983,-0.903284 -2.95685,0 -0.81703,0.903285 -0.81703,2.365745 0,3.269029"
   id="path854" />
<path
   style="fill:#ebf0f2;stroke-width:0.0511352"
   d="m 12.603513,26.569016 c 0.70031,0 1.24499,-0.602189 1.24499,-1.376432 0,-0.774244 -0.54468,-1.376434 -1.24499,-1.376434 -0.70031,0 -1.24499,0.60219 -1.24499,1.376434 0.0389,0.774243 0.58359,1.376432 1.24499,1.376432 z"
   id="path856" />
<path
   style="fill:#cadfe5;stroke-width:0.0511352"
   d="m 11.747583,24.246285 c -0.46687,0.516163 -0.46687,1.419447 0,1.935609 0.46687,0.516163 1.28389,0.516163 1.75077,0"
   id="path858" />
<path
   style="fill:#1b5a89;stroke-width:0.0511352"
   d="m 2.176723,7.6430608 c 0,0.4731491 0.35016,0.860271 0.77812,0.860271 h 3.50153 c 0.42797,0 0.77813,-0.3871219 0.77813,-0.860271 v 0 c 0,-0.4731485 -0.35016,-0.8602705 -0.77813,-0.8602705 h -3.50153 c -0.42796,0 -0.77812,0.387122 -0.77812,0.8602705 z"
   id="path860" />
<path
   style="fill:#18456d;stroke-width:0.0511352"
   d="m 6.495283,6.7827903 c 0.35015,0 0.6614,0.3441081 0.73922,0.6882167 -0.11672,0.3871214 -0.35016,0.6021895 -0.73922,0.6021895 h -3.50153 c -0.35015,0 -0.70031,-0.2580814 -0.81703,-0.6452033 0.19453,-0.4731486 0.46688,-0.6452029 0.81703,-0.6452029 z"
   id="path862" />
<g
   id="g864"
   transform="translate(-59.290121,-230.98655)">
</g>
<g
   id="g866"
   transform="translate(-59.290121,-230.98655)">
</g>
<g
   id="g868"
   transform="translate(-59.290121,-230.98655)">
</g>
<g
   id="g870"
   transform="translate(-59.290121,-230.98655)">
</g>
<g
   id="g872"
   transform="translate(-59.290121,-230.98655)">
</g>
<g
   id="g874"
   transform="translate(-59.290121,-230.98655)">
</g>
<g
   id="g876"
   transform="translate(-59.290121,-230.98655)">
</g>
<g
   id="g878"
   transform="translate(-59.290121,-230.98655)">
</g>
<g
   id="g880"
   transform="translate(-59.290121,-230.98655)">
</g>
<g
   id="g882"
   transform="translate(-59.290121,-230.98655)">
</g>
<g
   id="g884"
   transform="translate(-59.290121,-230.98655)">
</g>
<g
   id="g886"
   transform="translate(-59.290121,-230.98655)">
</g>
<g
   id="g888"
   transform="translate(-59.290121,-230.98655)">
</g>
<g
   id="g890"
   transform="translate(-59.290121,-230.98655)">
</g>
<g
   id="g892"
   transform="translate(-59.290121,-230.98655)">
</g>
<text
   xml:space="preserve"
   id="text955"
   style="white-space:pre;shape-inside:url(#rect957);fill:#000000;font-size:13.33333333px;-inkscape-font-specification:'Calibri Italic';font-family:Calibri;font-weight:normal;font-style:italic;font-stretch:normal;font-variant:normal"><tspan
     x="27.595703"
     y="19.233073"
     id="tspan1058">Jagger Charity Shop</tspan></text></svg>
